<svg width="36" height="37" viewBox="0 0 36 37" fill="none" xmlns="http://www.w3.org/2000/svg">
<path opacity="0.2" d="M29.25 5H9C8.70163 5 8.41548 5.11853 8.20451 5.32951C7.99353 5.54048 7.875 5.82663 7.875 6.125V30.875C7.875 31.1734 7.99353 31.4595 8.20451 31.6705C8.41548 31.8815 8.70163 32 9 32H29.25C29.5484 32 29.8345 31.8815 30.0455 31.6705C30.2565 31.4595 30.375 31.1734 30.375 30.875V6.125C30.375 5.82663 30.2565 5.54048 30.0455 5.32951C29.8345 5.11853 29.5484 5 29.25 5ZM19.125 20.75C18.235 20.75 17.365 20.4861 16.6249 19.9916C15.8849 19.4971 15.3081 18.7943 14.9675 17.9721C14.6269 17.1498 14.5378 16.245 14.7115 15.3721C14.8851 14.4992 15.3137 13.6974 15.943 13.068C16.5724 12.4387 17.3742 12.0101 18.2471 11.8365C19.12 11.6628 20.0248 11.7519 20.8471 12.0925C21.6693 12.4331 22.3721 13.0099 22.8666 13.7499C23.3611 14.49 23.625 15.36 23.625 16.25C23.625 17.4435 23.1509 18.5881 22.307 19.432C21.4631 20.2759 20.3185 20.75 19.125 20.75Z" fill="black"/>
<path d="M11.6986 25.025C11.8168 25.1139 11.9514 25.1785 12.0947 25.2153C12.2379 25.2521 12.387 25.2603 12.5335 25.2394C12.6799 25.2185 12.8207 25.1689 12.948 25.0935C13.0752 25.0181 13.1863 24.9184 13.275 24.8C13.9561 23.8918 14.8394 23.1547 15.8548 22.647C16.8701 22.1393 17.9898 21.875 19.125 21.875C20.2602 21.875 21.3799 22.1393 22.3953 22.647C23.4106 23.1547 24.2939 23.8918 24.975 24.8C25.0636 24.9182 25.1747 25.0178 25.3018 25.093C25.4289 25.1683 25.5696 25.2178 25.7159 25.2387C25.8622 25.2596 26.0111 25.2515 26.1542 25.2148C26.2973 25.1781 26.4318 25.1136 26.55 25.025C26.6682 24.9364 26.7678 24.8253 26.843 24.6982C26.9183 24.5711 26.9678 24.4304 26.9887 24.2841C27.0096 24.1378 27.0015 23.9889 26.9648 23.8458C26.9281 23.7027 26.8636 23.5682 26.775 23.45C25.7788 22.1144 24.4504 21.0629 22.9219 20.3998C23.7596 19.635 24.3465 18.6348 24.6055 17.5305C24.8646 16.4262 24.7838 15.2694 24.3736 14.2118C23.9635 13.1543 23.2432 12.2454 22.3072 11.6046C21.3713 10.9637 20.2635 10.6208 19.1292 10.6208C17.9949 10.6208 16.8871 10.9637 15.9512 11.6046C15.0153 12.2454 14.295 13.1543 13.8848 14.2118C13.4747 15.2694 13.3938 16.4262 13.6529 17.5305C13.912 18.6348 14.4989 19.635 15.3366 20.3998C13.8049 21.0616 12.4735 22.1133 11.475 23.45C11.2958 23.6885 11.2187 23.9884 11.2607 24.2838C11.3026 24.5792 11.4601 24.8458 11.6986 25.025ZM15.75 16.25C15.75 15.5825 15.9479 14.93 16.3188 14.375C16.6896 13.8199 17.2167 13.3874 17.8334 13.1319C18.4501 12.8765 19.1287 12.8096 19.7834 12.9398C20.4381 13.0701 21.0395 13.3915 21.5115 13.8635C21.9835 14.3355 22.3049 14.9369 22.4352 15.5916C22.5654 16.2463 22.4985 16.9249 22.2431 17.5416C21.9876 18.1583 21.5551 18.6854 21 19.0562C20.445 19.4271 19.7925 19.625 19.125 19.625C18.2299 19.625 17.3714 19.2694 16.7385 18.6365C16.1056 18.0036 15.75 17.1451 15.75 16.25ZM29.25 3.875H9C8.40326 3.875 7.83097 4.11205 7.40901 4.53401C6.98705 4.95597 6.75 5.52826 6.75 6.125V9.5H4.5C4.20163 9.5 3.91548 9.61853 3.7045 9.8295C3.49353 10.0405 3.375 10.3266 3.375 10.625C3.375 10.9234 3.49353 11.2095 3.7045 11.4205C3.91548 11.6315 4.20163 11.75 4.5 11.75H6.75V17.375H4.5C4.20163 17.375 3.91548 17.4935 3.7045 17.7045C3.49353 17.9155 3.375 18.2016 3.375 18.5C3.375 18.7984 3.49353 19.0845 3.7045 19.2955C3.91548 19.5065 4.20163 19.625 4.5 19.625H6.75V25.25H4.5C4.20163 25.25 3.91548 25.3685 3.7045 25.5795C3.49353 25.7905 3.375 26.0766 3.375 26.375C3.375 26.6734 3.49353 26.9595 3.7045 27.1705C3.91548 27.3815 4.20163 27.5 4.5 27.5H6.75V30.875C6.75 31.4717 6.98705 32.044 7.40901 32.466C7.83097 32.8879 8.40326 33.125 9 33.125H29.25C29.8467 33.125 30.419 32.8879 30.841 32.466C31.2629 32.044 31.5 31.4717 31.5 30.875V6.125C31.5 5.52826 31.2629 4.95597 30.841 4.53401C30.419 4.11205 29.8467 3.875 29.25 3.875ZM29.25 30.875H9V6.125H29.25V30.875Z" fill="black"/>
</svg>
