<svg width="240" height="240" viewBox="0 0 240 240" fill="none" xmlns="http://www.w3.org/2000/svg">
<g clip-path="url(#clip0_668_1935)">
<path d="M240 0H0V240H240V0Z" fill="white"/>
<path d="M23.4146 81.9513H29.2682V76.0976H35.1219V81.9513V87.8049H29.2682H23.4146V81.9513ZM23.4146 99.5122H29.2682V93.6586H35.1219V99.5122V105.366H29.2682H23.4146V99.5122ZM23.4146 111.22H29.2682H35.1219H40.9755V117.073H35.1219H29.2682H23.4146V111.22ZM23.4146 134.634H29.2682V140.488V146.341H35.1219V140.488H40.9755V146.341V152.195H35.1219H29.2682V158.049V163.902H35.1219H40.9755V169.756H35.1219H29.2682H23.4146V163.902V158.049V152.195V146.341V140.488V134.634ZM29.2682 122.927H35.1219V128.781V134.634H29.2682V128.781V122.927ZM35.1219 87.8049H40.9755V81.9513V76.0976V70.2439H46.8292H52.6828V76.0976H58.5365V81.9513H64.3902V87.8049H58.5365V93.6586H52.6828V87.8049V81.9513H46.8292V87.8049V93.6586H52.6828V99.5122H46.8292V105.366V111.22H40.9755V105.366V99.5122V93.6586H35.1219V87.8049ZM40.9755 128.781H46.8292V122.927H52.6828V128.781V134.634V140.488H58.5365H64.3902V146.341H58.5365H52.6828H46.8292V140.488V134.634H40.9755V128.781ZM40.9755 152.195H46.8292V158.049H40.9755V152.195ZM46.8292 111.22H52.6828V117.073H46.8292V111.22ZM46.8292 158.049H52.6828V163.902H46.8292V158.049ZM52.6828 105.366H58.5365H64.3902H70.2438V111.22H76.0975H81.9511V117.073H87.8048V122.927V128.781H81.9511H76.0975V122.927V117.073H70.2438V122.927H64.3902H58.5365V117.073H64.3902V111.22H58.5365H52.6828V105.366ZM52.6828 152.195H58.5365H64.3902V146.341H70.2438V140.488V134.634H76.0975V140.488H81.9511V146.341H87.8048V152.195H81.9511V158.049H76.0975V163.902H81.9511V169.756H87.8048H93.6584V175.61H99.5121V169.756V163.902V158.049H93.6584V152.195H99.5121H105.366H111.219V158.049H117.073H122.927V163.902H117.073H111.219V169.756V175.61V181.463H117.073V187.317V193.171H111.219V199.024H117.073V204.878H111.219V210.732H117.073V216.585H111.219H105.366H99.5121H93.6584V210.732V204.878H87.8048H81.9511V199.024H87.8048H93.6584H99.5121V204.878H105.366V199.024V193.171H99.5121H93.6584V187.317H99.5121H105.366V181.463H99.5121H93.6584V187.317H87.8048V181.463V175.61H81.9511V181.463V187.317H76.0975V181.463H70.2438V175.61V169.756H64.3902H58.5365H52.6828V163.902H58.5365H64.3902H70.2438V158.049H64.3902H58.5365H52.6828V152.195ZM58.5365 70.2439H64.3902H70.2438V76.0976H64.3902H58.5365V70.2439ZM58.5365 93.6586H64.3902V99.5122H58.5365V93.6586ZM58.5365 128.781H64.3902H70.2438V134.634H64.3902H58.5365V128.781ZM70.2438 35.122H76.0975V40.9756H81.9511V35.122V29.2683H87.8048V23.4147H93.6584V29.2683V35.122H99.5121H105.366V29.2683H111.219H117.073V23.4147H122.927V29.2683H128.78V35.122V40.9756V46.8293H122.927H117.073V52.683H122.927V58.5366V64.3903H117.073V58.5366H111.219V64.3903H117.073V70.2439V76.0976V81.9513H111.219H105.366V87.8049H99.5121V81.9513H93.6584H87.8048V76.0976H93.6584V70.2439H99.5121V76.0976H105.366H111.219V70.2439H105.366H99.5121V64.3903H105.366V58.5366V52.683H111.219V46.8293H105.366V52.683H99.5121V46.8293H93.6584V40.9756H87.8048V46.8293V52.683V58.5366V64.3903H81.9511V58.5366V52.683H76.0975V46.8293H70.2438V40.9756V35.122ZM70.2438 58.5366H76.0975V64.3903H70.2438V58.5366ZM70.2438 76.0976H76.0975H81.9511V81.9513H76.0975V87.8049H70.2438V81.9513V76.0976ZM70.2438 93.6586H76.0975V87.8049H81.9511V81.9513H87.8048V87.8049V93.6586H81.9511V99.5122H87.8048V105.366V111.22H81.9511V105.366H76.0975V99.5122H70.2438V93.6586ZM70.2438 187.317H76.0975V193.171H81.9511V199.024H76.0975H70.2438V193.171V187.317ZM76.0975 23.4147H81.9511V29.2683H76.0975V23.4147ZM76.0975 204.878H81.9511V210.732H87.8048V216.585H81.9511H76.0975V210.732V204.878ZM81.9511 70.2439H87.8048V76.0976H81.9511V70.2439ZM81.9511 134.634H87.8048V140.488H81.9511V134.634ZM87.8048 64.3903H93.6584V70.2439H87.8048V64.3903ZM87.8048 158.049H93.6584V163.902H87.8048V158.049ZM93.6584 52.683H99.5121V58.5366V64.3903H93.6584V58.5366V52.683ZM117.073 35.122V40.9756H122.927V35.122H117.073ZM117.073 81.9513H122.927V87.8049H117.073V81.9513ZM117.073 169.756H122.927V175.61H128.78H134.634V181.463H128.78H122.927H117.073V175.61V169.756ZM122.927 64.3903H128.78V70.2439H122.927V64.3903ZM122.927 76.0976H128.78V81.9513H122.927V76.0976ZM122.927 187.317H128.78H134.634V193.171H128.78V199.024V204.878H134.634H140.488V210.732H146.341V216.585H140.488H134.634V210.732H128.78H122.927V204.878V199.024V193.171V187.317ZM128.78 52.683H134.634H140.488V58.5366H134.634V64.3903H128.78V58.5366V52.683ZM128.78 81.9513H134.634H140.488V87.8049H134.634H128.78V81.9513ZM128.78 152.195H134.634V158.049H128.78V152.195ZM128.78 163.902H134.634V169.756H128.78V163.902ZM134.634 23.4147H140.488H146.341V29.2683H152.195V23.4147H158.049V29.2683V35.122H152.195V40.9756H158.049V35.122H163.902V29.2683V23.4147H169.756V29.2683V35.122V40.9756V46.8293H163.902V52.683H158.049V58.5366V64.3903H152.195V58.5366H146.341V52.683H140.488V46.8293H146.341V40.9756V35.122H140.488V29.2683H134.634V23.4147ZM134.634 35.122H140.488V40.9756H134.634V35.122ZM134.634 70.2439H140.488V76.0976H134.634V70.2439ZM134.634 158.049H140.488V152.195H146.341H152.195V146.341H158.049V152.195H163.902V158.049H169.756V163.902H175.61H181.463V158.049H175.61V152.195V146.341V140.488H181.463V134.634H187.317H193.171V128.781H187.317H181.463V122.927H175.61H169.756V117.073H163.902V111.22H169.756H175.61V117.073H181.463H187.317V111.22V105.366H193.171V111.22V117.073H199.024V111.22H204.878H210.732V117.073H204.878V122.927H199.024V128.781H204.878V134.634V140.488H199.024V146.341H193.171V140.488H187.317V146.341H181.463V152.195H187.317V158.049H193.171V163.902V169.756H199.024H204.878V163.902H199.024V158.049V152.195H204.878H210.732V146.341H216.585V152.195V158.049V163.902V169.756H210.732V175.61H204.878H199.024H193.171V181.463H199.024H204.878H210.732V187.317V193.171V199.024H216.585V204.878V210.732H210.732H204.878V204.878V199.024V193.171V187.317H199.024V193.171H193.171H187.317V199.024H181.463V193.171H175.61V199.024H169.756V193.171H163.902H158.049V199.024H152.195H146.341V204.878H140.488V199.024V193.171H146.341V187.317V181.463H152.195H158.049V187.317H163.902V181.463H158.049V175.61H152.195H146.341V181.463H140.488V175.61H134.634V169.756H140.488V163.902H134.634V158.049ZM140.488 58.5366H146.341V64.3903V70.2439H140.488V64.3903V58.5366ZM146.341 158.049V163.902V169.756H152.195H158.049V163.902V158.049H152.195H146.341ZM146.341 81.9513H152.195V87.8049H146.341V81.9513ZM152.195 70.2439H158.049V64.3903H163.902V70.2439V76.0976V81.9513V87.8049H158.049V81.9513V76.0976H152.195V70.2439ZM152.195 93.6586H158.049V99.5122H163.902V93.6586H169.756V99.5122H175.61V105.366H169.756H163.902H158.049H152.195V99.5122V93.6586ZM152.195 122.927H158.049V128.781H163.902V134.634H169.756H175.61V140.488H169.756H163.902H158.049H152.195V134.634V128.781V122.927ZM152.195 204.878H158.049H163.902V210.732H169.756H175.61V216.585H169.756H163.902H158.049V210.732H152.195V204.878ZM163.902 52.683H169.756V58.5366V64.3903H163.902V58.5366V52.683ZM163.902 122.927H169.756V128.781H163.902V122.927ZM163.902 146.341H169.756V152.195H163.902V146.341ZM169.756 169.756V175.61V181.463V187.317H175.61H181.463H187.317V181.463V175.61V169.756H181.463H175.61H169.756ZM163.902 199.024H169.756V204.878H163.902V199.024ZM169.756 76.0976H175.61V81.9513V87.8049H169.756V81.9513V76.0976ZM175.61 87.8049H181.463V81.9513V76.0976H187.317H193.171V70.2439H199.024H204.878V76.0976V81.9513H210.732H216.585V87.8049V93.6586V99.5122H210.732V105.366H204.878H199.024V99.5122H204.878V93.6586H210.732V87.8049H204.878V93.6586H199.024V87.8049H193.171V81.9513H187.317V87.8049H193.171V93.6586V99.5122H187.317V93.6586H181.463V99.5122H175.61V93.6586V87.8049ZM175.61 175.61H181.463V181.463H175.61V175.61ZM187.317 146.341H193.171V152.195H187.317V146.341ZM187.317 199.024H193.171H199.024V204.878V210.732H193.171V204.878H187.317V199.024ZM187.317 210.732H193.171V216.585H187.317V210.732ZM199.024 210.732H204.878V216.585H199.024V210.732ZM204.878 122.927H210.732H216.585V128.781V134.634V140.488H210.732V134.634V128.781H204.878V122.927ZM204.878 140.488H210.732V146.341H204.878V140.488Z" fill="black"/>
<path d="M23.4146 23.4147H29.2682H35.1219H40.9755H46.8292H52.6828H58.5365H64.3902V29.2683V35.122V40.9757V46.8293V52.683V58.5366V64.3903H58.5365H52.6828H46.8292H40.9755H35.1219H29.2682H23.4146V58.5366V52.683V46.8293V40.9757V35.122V29.2683V23.4147ZM29.2682 29.2683V35.122V40.9757V46.8293V52.683V58.5366H35.1219H40.9755H46.8292H52.6828H58.5365V52.683V46.8293V40.9757V35.122V29.2683H52.6828H46.8292H40.9755H35.1219H29.2682Z" fill="black"/>
<path d="M35.1221 35.1219H40.9757H46.8294H52.683V40.9756V46.8293V52.6829H46.8294H40.9757H35.1221V46.8293V40.9756V35.1219Z" fill="black"/>
<path d="M175.61 23.4147H181.464H187.317H193.171H199.024H204.878H210.732H216.585V29.2683V35.122V40.9757V46.8293V52.683V58.5366V64.3903H210.732H204.878H199.024H193.171H187.317H181.464H175.61V58.5366V52.683V46.8293V40.9757V35.122V29.2683V23.4147ZM181.464 29.2683V35.122V40.9757V46.8293V52.683V58.5366H187.317H193.171H199.024H204.878H210.732V52.683V46.8293V40.9757V35.122V29.2683H204.878H199.024H193.171H187.317H181.464Z" fill="black"/>
<path d="M187.317 35.1219H193.171H199.024H204.878V40.9756V46.8293V52.6829H199.024H193.171H187.317V46.8293V40.9756V35.1219Z" fill="black"/>
<path d="M23.4146 175.61H29.2682H35.1219H40.9755H46.8292H52.6828H58.5365H64.3902V181.463V187.317V193.171V199.024V204.878V210.732V216.585H58.5365H52.6828H46.8292H40.9755H35.1219H29.2682H23.4146V210.732V204.878V199.024V193.171V187.317V181.463V175.61ZM29.2682 181.463V187.317V193.171V199.024V204.878V210.732H35.1219H40.9755H46.8292H52.6828H58.5365V204.878V199.024V193.171V187.317V181.463H52.6828H46.8292H40.9755H35.1219H29.2682Z" fill="black"/>
<path d="M35.1221 187.317H40.9757H46.8294H52.683V193.171V199.024V204.878H46.8294H40.9757H35.1221V199.024V193.171V187.317Z" fill="black"/>
</g>
<rect x="0.2" y="0.2" width="239.6" height="239.6" rx="11.8" stroke="#002147" stroke-width="0.4"/>
<defs>
<clipPath id="clip0_668_1935">
<rect width="240" height="240" rx="12" fill="white"/>
</clipPath>
</defs>
</svg>
