<svg width="20" height="22" viewBox="0 0 20 22" fill="none" xmlns="http://www.w3.org/2000/svg">
<path fill-rule="evenodd" clip-rule="evenodd" d="M10 2.75005C9.03969 2.75007 8.10902 3.08274 7.36628 3.69148C6.62355 4.30021 6.11461 5.14743 5.92601 6.08905L4.99751 10.7331C4.72063 12.1195 4.03952 13.393 3.04001 14.3931L2.74901 14.6826C2.64134 14.7897 2.56438 14.9237 2.52614 15.0707C2.48791 15.2177 2.4898 15.3722 2.53163 15.5182C2.57345 15.6642 2.65368 15.7963 2.76394 15.9008C2.8742 16.0052 3.01046 16.0782 3.15851 16.1121L4.39001 16.3971C8.08148 17.2491 11.9185 17.2491 15.61 16.3971L16.84 16.1121C16.9879 16.078 17.1239 16.0049 17.2341 15.9005C17.3442 15.7961 17.4244 15.6641 17.4663 15.5183C17.5083 15.3725 17.5104 15.218 17.4726 15.0711C17.4347 14.9241 17.3582 14.79 17.251 14.6826L16.96 14.3931C15.9605 13.393 15.2794 12.1195 15.0025 10.7331L14.9005 10.2276C14.8418 9.93495 14.9018 9.63103 15.0672 9.38264C15.2326 9.13424 15.4899 8.96173 15.7825 8.90305C16.0751 8.84437 16.379 8.90433 16.6274 9.06974C16.8758 9.23515 17.0483 9.49245 17.107 9.78505L17.209 10.2921C17.398 11.2431 17.866 12.1161 18.5515 12.8016L18.8425 13.0926C19.2341 13.4837 19.5137 13.9727 19.6524 14.5085C19.7911 15.0443 19.7837 15.6075 19.6311 16.1396C19.4784 16.6716 19.1861 17.153 18.7844 17.5339C18.3827 17.9147 17.8864 18.181 17.347 18.3051L16.1155 18.5901C15.064 18.8301 14.0005 19.0101 12.9355 19.1271C12.7929 19.7997 12.4235 20.4029 11.8893 20.8357C11.3551 21.2686 10.6883 21.5048 10.0008 21.5048C9.31318 21.5048 8.64647 21.2686 8.11222 20.8357C7.57798 20.4029 7.20863 19.7997 7.06601 19.1271C5.99629 19.0106 4.93442 18.8308 3.88601 18.5886L2.65301 18.3036C2.11419 18.1789 1.61854 17.9123 1.21742 17.5316C0.816301 17.1509 0.524327 16.6697 0.371765 16.1381C0.219204 15.6066 0.21161 15.0438 0.349769 14.5083C0.487929 13.9728 0.766813 13.484 1.15751 13.0926L1.45001 12.8001C2.13551 12.1146 2.60351 11.2401 2.79251 10.2906L3.72251 5.64655C3.89717 4.77394 4.25176 3.94731 4.76366 3.21936C5.27556 2.49141 5.93354 1.87812 6.69564 1.4186C7.45774 0.95908 8.30724 0.663416 9.18996 0.550461C10.0727 0.437506 10.9693 0.509739 11.8225 0.762553C11.9641 0.804609 12.0961 0.874149 12.2109 0.967203C12.3256 1.06026 12.4209 1.175 12.4913 1.30489C12.5617 1.43478 12.6059 1.57726 12.6212 1.7242C12.6366 1.87115 12.6228 2.01967 12.5808 2.1613C12.5387 2.30293 12.4692 2.43489 12.3761 2.54965C12.2831 2.66441 12.1683 2.75971 12.0384 2.83012C11.9085 2.90053 11.7661 2.94467 11.6191 2.96001C11.4722 2.97536 11.3236 2.96161 11.182 2.91955C10.7982 2.80635 10.4001 2.74926 10 2.75005Z" fill="black"/>
<path fill-rule="evenodd" clip-rule="evenodd" d="M16.75 7.25C17.5456 7.25 18.3087 6.93393 18.8713 6.37132C19.4339 5.80871 19.75 5.04565 19.75 4.25C19.75 3.45435 19.4339 2.69129 18.8713 2.12868C18.3087 1.56607 17.5456 1.25 16.75 1.25C15.9544 1.25 15.1913 1.56607 14.6287 2.12868C14.0661 2.69129 13.75 3.45435 13.75 4.25C13.75 5.04565 14.0661 5.80871 14.6287 6.37132C15.1913 6.93393 15.9544 7.25 16.75 7.25Z" fill="#D34949"/>
</svg>
