<svg width="24" height="24" viewBox="0 0 24 24" fill="none" xmlns="http://www.w3.org/2000/svg">
<mask id="mask0_51_228" style="mask-type:alpha" maskUnits="userSpaceOnUse" x="0" y="0" width="24" height="24">
<rect width="24" height="24" fill="#D9D9D9"/>
</mask>
<g mask="url(#mask0_51_228)">
<path d="M5.00001 8.80774H19V6.30772C19 6.23079 18.968 6.16026 18.9039 6.09614C18.8397 6.03204 18.7692 5.99999 18.6923 5.99999H5.30773C5.2308 5.99999 5.16027 6.03204 5.09616 6.09614C5.03206 6.16026 5.00001 6.23079 5.00001 6.30772V8.80774ZM5.30773 21.5C4.8026 21.5 4.37503 21.325 4.02503 20.975C3.67503 20.625 3.50003 20.1974 3.50003 19.6923V6.30772C3.50003 5.80259 3.67503 5.37502 4.02503 5.02502C4.37503 4.67502 4.8026 4.50002 5.30773 4.50002H6.69236V2.38464H8.23078V4.50002H15.8077V2.38464H17.3077V4.50002H18.6923C19.1974 4.50002 19.625 4.67502 19.975 5.02502C20.325 5.37502 20.5 5.80259 20.5 6.30772V11.7711C20.2602 11.666 20.0154 11.5811 19.7654 11.5163C19.5154 11.4516 19.2603 11.4007 19 11.3635V10.3077H5.00001V19.6923C5.00001 19.7692 5.03206 19.8397 5.09616 19.9038C5.16027 19.9679 5.2308 20 5.30773 20H11.8097C11.8943 20.2769 11.9965 20.5388 12.1164 20.7855C12.2362 21.0323 12.3725 21.2705 12.525 21.5H5.30773ZM18.1923 22.5C16.9436 22.5 15.8814 22.0622 15.0058 21.1865C14.1302 20.3109 13.6924 19.2487 13.6924 18C13.6924 16.7513 14.1302 15.6891 15.0058 14.8135C15.8814 13.9378 16.9436 13.5 18.1923 13.5C19.441 13.5 20.5032 13.9378 21.3788 14.8135C22.2545 15.6891 22.6923 16.7513 22.6923 18C22.6923 19.2487 22.2545 20.3109 21.3788 21.1865C20.5032 22.0622 19.441 22.5 18.1923 22.5ZM19.8577 20.2884L20.4808 19.6654L18.6346 17.8192V15.0577H17.75V18.1808L19.8577 20.2884Z" fill="#1C1B1F"/>
</g>
</svg>
