<svg width="43" height="43" viewBox="0 0 43 43" fill="none" xmlns="http://www.w3.org/2000/svg">
<path d="M37.9073 3.22507C38.9954 3.83444 39.7969 4.85102 40.1355 6.05125C40.4742 7.25148 40.3223 8.53709 39.7133 9.62535L24.2467 37.2448C23.855 37.9445 23.3117 38.5477 22.6566 39.0102C22.0016 39.4726 21.2513 39.7827 20.4609 39.9176C19.6704 40.0525 18.8598 40.0088 18.0884 39.7898C17.317 39.5707 16.6044 39.1819 16.0028 38.6517L4.28129 28.3263C3.34542 27.5016 2.77549 26.339 2.69686 25.0941C2.61824 23.8492 3.03736 22.6241 3.86204 21.6882C4.68671 20.7523 5.84938 20.1824 7.09427 20.1038C8.33916 20.0251 9.5643 20.4443 10.5002 21.2689L18.4767 28.2968L31.5057 5.03107C31.8074 4.49213 32.2123 4.0179 32.6974 3.63546C33.1824 3.25303 33.738 2.96987 34.3324 2.80217C34.9269 2.63446 35.5485 2.58549 36.1619 2.65806C36.7753 2.73062 37.3684 2.92329 37.9073 3.22507Z" fill="#002147"/>
</svg>
