<svg width="36" height="36" viewBox="0 0 36 36" fill="none" xmlns="http://www.w3.org/2000/svg">
<mask id="mask0_323_471" style="mask-type:alpha" maskUnits="userSpaceOnUse" x="0" y="0" width="36" height="36">
<rect width="36" height="36" fill="#D9D9D9"/>
</mask>
<g mask="url(#mask0_323_471)">
<path d="M21.75 17.625C21.225 17.625 20.7812 17.4437 20.4188 17.0812C20.0563 16.7188 19.875 16.275 19.875 15.75C19.875 15.225 20.0563 14.7812 20.4188 14.4188C20.7812 14.0563 21.225 13.875 21.75 13.875C22.275 13.875 22.7188 14.0563 23.0812 14.4188C23.4438 14.7812 23.625 15.225 23.625 15.75C23.625 16.275 23.4438 16.7188 23.0812 17.0812C22.7188 17.4437 22.275 17.625 21.75 17.625ZM14.25 17.625C13.725 17.625 13.2812 17.4437 12.9188 17.0812C12.5563 16.7188 12.375 16.275 12.375 15.75C12.375 15.225 12.5563 14.7812 12.9188 14.4188C13.2812 14.0563 13.725 13.875 14.25 13.875C14.775 13.875 15.2188 14.0563 15.5813 14.4188C15.9438 14.7812 16.125 15.225 16.125 15.75C16.125 16.275 15.9438 16.7188 15.5813 17.0812C15.2188 17.4437 14.775 17.625 14.25 17.625ZM18 25.5C16.5 25.5 15.1438 25.0875 13.9312 24.2625C12.7188 23.4375 11.825 22.35 11.25 21H24.75C24.175 22.35 23.2812 23.4375 22.0688 24.2625C20.8563 25.0875 19.5 25.5 18 25.5ZM18 31.5C16.125 31.5 14.3688 31.1438 12.7313 30.4313C11.0938 29.7188 9.66875 28.7563 8.45625 27.5438C7.24375 26.3313 6.28125 24.9062 5.56875 23.2687C4.85625 21.6313 4.5 19.875 4.5 18C4.5 16.125 4.85625 14.3688 5.56875 12.7313C6.28125 11.0938 7.24375 9.66875 8.45625 8.45625C9.66875 7.24375 11.0938 6.28125 12.7313 5.56875C14.3688 4.85625 16.125 4.5 18 4.5C19.875 4.5 21.6313 4.85625 23.2687 5.56875C24.9062 6.28125 26.3313 7.24375 27.5438 8.45625C28.7563 9.66875 29.7188 11.0938 30.4313 12.7313C31.1438 14.3688 31.5 16.125 31.5 18C31.5 19.875 31.1438 21.6313 30.4313 23.2687C29.7188 24.9062 28.7563 26.3313 27.5438 27.5438C26.3313 28.7563 24.9062 29.7188 23.2687 30.4313C21.6313 31.1438 19.875 31.5 18 31.5ZM18 28.5C20.9 28.5 23.375 27.475 25.425 25.425C27.475 23.375 28.5 20.9 28.5 18C28.5 15.1 27.475 12.625 25.425 10.575C23.375 8.525 20.9 7.5 18 7.5H17.55C17.4 7.5 17.25 7.525 17.1 7.575C16.95 7.725 16.85 7.8875 16.8 8.0625C16.75 8.2375 16.725 8.425 16.725 8.625C16.725 9.15 16.9062 9.59375 17.2687 9.95625C17.6312 10.3187 18.075 10.5 18.6 10.5C18.825 10.5 19.0312 10.4625 19.2188 10.3875C19.4062 10.3125 19.6 10.275 19.8 10.275C20.1 10.275 20.35 10.3875 20.55 10.6125C20.75 10.8375 20.85 11.1 20.85 11.4C20.85 11.975 20.5813 12.3438 20.0438 12.5063C19.5063 12.6687 19.025 12.75 18.6 12.75C17.475 12.75 16.5063 12.3438 15.6938 11.5312C14.8813 10.7188 14.475 9.75 14.475 8.625V8.4C14.475 8.325 14.4875 8.225 14.5125 8.1C12.4375 8.85 10.75 10.1125 9.45 11.8875C8.15 13.6625 7.5 15.7 7.5 18C7.5 20.9 8.525 23.375 10.575 25.425C12.625 27.475 15.1 28.5 18 28.5Z" fill="#1C1B1F"/>
</g>
</svg>
