<svg width="24" height="24" viewBox="0 0 24 24" fill="none" xmlns="http://www.w3.org/2000/svg">
<path fill-rule="evenodd" clip-rule="evenodd" d="M4.08948 1.41113H17.3087V4.06127H19.9106V22.5888H4.08948V1.41113Z" fill="#DDEDFF" stroke="black" stroke-miterlimit="2.61313" stroke-linecap="round" stroke-linejoin="round"/>
<path fill-rule="evenodd" clip-rule="evenodd" d="M17.3087 1.41113L19.9105 4.06127H17.3087V1.41113Z" stroke="black" stroke-miterlimit="2.61313" stroke-linecap="round" stroke-linejoin="round"/>
<path fill-rule="evenodd" clip-rule="evenodd" d="M7.96249 3.44214H10.4096L10.5838 10.2849H7.78827L7.96249 3.44214Z" stroke="black" stroke-miterlimit="2.61313" stroke-linecap="round" stroke-linejoin="round"/>
<path fill-rule="evenodd" clip-rule="evenodd" d="M10.5838 10.285H16.2761V6.0052L13.697 6.99556L13.636 5.97839L10.5014 7.02505L10.5838 10.285Z" stroke="black" stroke-miterlimit="2.61313" stroke-linecap="round" stroke-linejoin="round"/>
<path fill-rule="evenodd" clip-rule="evenodd" d="M12.192 7.86133C12.4131 7.86133 12.592 8.04024 12.592 8.26136C12.592 8.48249 12.4131 8.66139 12.192 8.66139C11.9708 8.66139 11.7919 8.48249 11.7919 8.26136C11.7919 8.04024 11.9708 7.86133 12.192 7.86133Z" stroke="black" stroke-miterlimit="2.61313" stroke-linecap="round" stroke-linejoin="round"/>
<path fill-rule="evenodd" clip-rule="evenodd" d="M14.8555 7.86133C15.0767 7.86133 15.2556 8.04024 15.2556 8.26136C15.2556 8.48249 15.0767 8.66139 14.8555 8.66139C14.6344 8.66139 14.4555 8.48249 14.4555 8.26136C14.4555 8.04024 14.6344 7.86133 14.8555 7.86133Z" stroke="black" stroke-miterlimit="2.61313" stroke-linecap="round" stroke-linejoin="round"/>
<path d="M7.19605 11C7.08755 11 7 10.776 7 10.5C7 10.224 7.08755 10 7.19605 10V11ZM16.8039 10.5L16.8015 11H16.7848H16.7404H16.6535H16.5105H16.2972H15.9994H15.603H15.0937H14.4581H13.6819H12.7509H11.651H10.3681H8.88779H7.19667V10H8.88779H10.3681H11.651H12.7509H13.6819H14.4581H15.0937H15.603H15.9994H16.2972H16.5105H16.6535H16.7404H16.7848H16.8015L16.8039 10.5ZM16.8039 10C16.9125 10 17 10.224 17 10.5C17 10.776 16.9125 11 16.8039 11V10Z" fill="black"/>
<path d="M7.19605 14C7.08755 14 7 13.776 7 13.5C7 13.224 7.08755 13 7.19605 13V14ZM16.8039 13.5L16.8015 14H16.7848H16.7404H16.6535H16.5105H16.2972H15.9994H15.603H15.0937H14.4581H13.6819H12.7509H11.651H10.3681H8.88779H7.19667V13H8.88779H10.3681H11.651H12.7509H13.6819H14.4581H15.0937H15.603H15.9994H16.2972H16.5105H16.6535H16.7404H16.7848H16.8015L16.8039 13.5ZM16.8039 13C16.9125 13 17 13.224 17 13.5C17 13.776 16.9125 14 16.8039 14V13Z" fill="black"/>
<path d="M7.19605 17C7.08755 17 7 16.776 7 16.5C7 16.224 7.08755 16 7.19605 16V17ZM16.8039 16.5L16.8015 17H16.7848H16.7404H16.6535H16.5105H16.2972H15.9994H15.603H15.0937H14.4581H13.6819H12.7509H11.651H10.3681H8.88779H7.19667V16H8.88779H10.3681H11.651H12.7509H13.6819H14.4581H15.0937H15.603H15.9994H16.2972H16.5105H16.6535H16.7404H16.7848H16.8015L16.8039 16.5ZM16.8039 16C16.9125 16 17 16.224 17 16.5C17 16.776 16.9125 17 16.8039 17V16Z" fill="black"/>
<path d="M7.19605 20C7.08755 20 7 19.776 7 19.5C7 19.224 7.08755 19 7.19605 19V20ZM16.8039 19.5L16.8015 20H16.7848H16.7404H16.6535H16.5105H16.2972H15.9994H15.603H15.0937H14.4581H13.6819H12.7509H11.651H10.3681H8.88779H7.19667V19H8.88779H10.3681H11.651H12.7509H13.6819H14.4581H15.0937H15.603H15.9994H16.2972H16.5105H16.6535H16.7404H16.7848H16.8015L16.8039 19.5ZM16.8039 19C16.9125 19 17 19.224 17 19.5C17 19.776 16.9125 20 16.8039 20V19Z" fill="black"/>
</svg>
