<svg width="36" height="37" viewBox="0 0 36 37" fill="none" xmlns="http://www.w3.org/2000/svg">
<path opacity="0.2" d="M27 24.125C27 25.905 26.4722 27.6451 25.4832 29.1251C24.4943 30.6052 23.0887 31.7587 21.4442 32.4399C19.7996 33.1211 17.99 33.2993 16.2442 32.9521C14.4984 32.6048 12.8947 31.7476 11.636 30.489C10.3774 29.2303 9.5202 27.6266 9.17294 25.8808C8.82567 24.135 9.0039 22.3254 9.68509 20.6808C10.3663 19.0363 11.5198 17.6307 12.9999 16.6418C14.4799 15.6528 16.22 15.125 18 15.125C20.387 15.125 22.6761 16.0732 24.364 17.761C26.0518 19.4489 27 21.7381 27 24.125Z" fill="black"/>
<path d="M19.125 14.0647V9.23709L23.0456 11.5897C23.1723 11.6658 23.3128 11.7162 23.4589 11.738C23.6051 11.7598 23.7541 11.7527 23.8975 11.7169C24.0408 11.6811 24.1758 11.6174 24.2945 11.5295C24.4133 11.4416 24.5136 11.3311 24.5897 11.2044C24.6658 11.0777 24.7162 10.9373 24.738 10.7912C24.7598 10.645 24.7526 10.496 24.7168 10.3526C24.6811 10.2092 24.6174 10.0743 24.5295 9.95552C24.4415 9.83675 24.3311 9.73645 24.2044 9.66037L20.1867 7.25006L24.2044 4.83975C24.3311 4.76366 24.4415 4.66337 24.5295 4.5446C24.6174 4.42582 24.6811 4.29089 24.7168 4.14752C24.7526 4.00414 24.7598 3.85511 24.738 3.70896C24.7162 3.5628 24.6658 3.42237 24.5897 3.29568C24.5136 3.169 24.4133 3.05854 24.2945 2.97062C24.1758 2.88269 24.0408 2.81902 23.8975 2.78324C23.7541 2.74746 23.6051 2.74027 23.4589 2.76209C23.3128 2.7839 23.1723 2.83429 23.0456 2.91037L18 5.93803L12.9544 2.91037C12.6985 2.75671 12.3921 2.71098 12.1026 2.78324C11.813 2.8555 11.564 3.03983 11.4103 3.29568C11.2567 3.55153 11.2109 3.85795 11.2832 4.14752C11.3555 4.43708 11.5398 4.68609 11.7956 4.83975L15.8133 7.25006L11.7956 9.66037C11.5398 9.81403 11.3555 10.063 11.2832 10.3526C11.2109 10.6422 11.2567 10.9486 11.4103 11.2044C11.564 11.4603 11.813 11.6446 12.1026 11.7169C12.3921 11.7891 12.6985 11.7434 12.9544 11.5897L16.875 9.23709V14.0647C14.3032 14.3523 11.9392 15.6136 10.2683 17.5897C8.5975 19.5658 7.74671 22.1066 7.8907 24.6904C8.03469 27.2742 9.16253 29.7048 11.0426 31.483C12.9227 33.2612 15.4122 34.2521 18 34.2521C20.5878 34.2521 23.0774 33.2612 24.9574 31.483C26.8375 29.7048 27.9653 27.2742 28.1093 24.6904C28.2533 22.1066 27.4025 19.5658 25.7317 17.5897C24.0608 15.6136 21.6968 14.3523 19.125 14.0647ZM18 32.0001C16.4425 32.0001 14.9199 31.5382 13.6249 30.6729C12.3299 29.8076 11.3205 28.5777 10.7245 27.1387C10.1284 25.6997 9.97247 24.1163 10.2763 22.5887C10.5802 21.0611 11.3302 19.6579 12.4315 18.5566C13.5329 17.4553 14.9361 16.7052 16.4637 16.4014C17.9913 16.0975 19.5747 16.2535 21.0136 16.8495C22.4526 17.4455 23.6825 18.4549 24.5478 19.7499C25.4132 21.045 25.875 22.5675 25.875 24.1251C25.8728 26.213 25.0424 28.2147 23.566 29.6911C22.0896 31.1674 20.0879 31.9978 18 32.0001Z" fill="black"/>
</svg>
