<svg width="24" height="25" viewBox="0 0 24 25" fill="none" xmlns="http://www.w3.org/2000/svg">
<mask id="mask0_383_905" style="mask-type:alpha" maskUnits="userSpaceOnUse" x="0" y="0" width="24" height="25">
<rect y="0.5" width="24" height="24" fill="#D9D9D9"/>
</mask>
<g mask="url(#mask0_383_905)">
<path d="M4 14.025L6.525 11.5L4 8.975L1.475 11.5L4 14.025ZM17.5 13.5L20 9.5L22.5 13.5H17.5ZM12 12.5C11.1667 12.5 10.4583 12.2083 9.875 11.625C9.29167 11.0417 9 10.3333 9 9.5C9 8.65 9.29167 7.9375 9.875 7.3625C10.4583 6.7875 11.1667 6.5 12 6.5C12.85 6.5 13.5625 6.7875 14.1375 7.3625C14.7125 7.9375 15 8.65 15 9.5C15 10.3333 14.7125 11.0417 14.1375 11.625C13.5625 12.2083 12.85 12.5 12 12.5ZM12 8.5C11.7167 8.5 11.4792 8.59583 11.2875 8.7875C11.0958 8.97917 11 9.21667 11 9.5C11 9.78333 11.0958 10.0208 11.2875 10.2125C11.4792 10.4042 11.7167 10.5 12 10.5C12.2833 10.5 12.5208 10.4042 12.7125 10.2125C12.9042 10.0208 13 9.78333 13 9.5C13 9.21667 12.9042 8.97917 12.7125 8.7875C12.5208 8.59583 12.2833 8.5 12 8.5ZM0 18.5V16.925C0 16.1917 0.370833 15.6042 1.1125 15.1625C1.85417 14.7208 2.81667 14.5 4 14.5C4.21667 14.5 4.425 14.5042 4.625 14.5125C4.825 14.5208 5.01667 14.5417 5.2 14.575C4.96667 14.9083 4.79167 15.2667 4.675 15.65C4.55833 16.0333 4.5 16.4417 4.5 16.875V18.5H0ZM6 18.5V16.875C6 15.7917 6.55417 14.9167 7.6625 14.25C8.77083 13.5833 10.2167 13.25 12 13.25C13.8 13.25 15.25 13.5833 16.35 14.25C17.45 14.9167 18 15.7917 18 16.875V18.5H6ZM20 14.5C21.2 14.5 22.1667 14.7208 22.9 15.1625C23.6333 15.6042 24 16.1917 24 16.925V18.5H19.5V16.875C19.5 16.4417 19.4458 16.0333 19.3375 15.65C19.2292 15.2667 19.0667 14.9083 18.85 14.575C19.0333 14.5417 19.2208 14.5208 19.4125 14.5125C19.6042 14.5042 19.8 14.5 20 14.5ZM12 15.25C11.05 15.25 10.2 15.375 9.45 15.625C8.7 15.875 8.25833 16.1667 8.125 16.5H15.9C15.75 16.1667 15.3042 15.875 14.5625 15.625C13.8208 15.375 12.9667 15.25 12 15.25Z" fill="#1C1B1F"/>
</g>
</svg>
