<svg width="36" height="37" viewBox="0 0 36 37" fill="none" xmlns="http://www.w3.org/2000/svg">
<path d="M16.7872 19.3542L4.77783 10.0167L3.81104 9.2644L4.78135 10.0203V28.3437H31.2188V10.0203L19.2024 19.3542C18.8571 19.6226 18.4322 19.7682 17.9948 19.7682C17.5575 19.7682 17.1326 19.6226 16.7872 19.3542Z" fill="black" fill-opacity="0.15"/>
<path d="M30.8074 7.48901L32.189 9.2644L31.2187 10.0203L32.1925 9.2644L30.8109 7.48901H30.8074Z" fill="black" fill-opacity="0.15"/>
<path d="M32.625 6.125H3.375C2.75273 6.125 2.25 6.62773 2.25 7.25V29.75C2.25 30.3723 2.75273 30.875 3.375 30.875H32.625C33.2473 30.875 33.75 30.3723 33.75 29.75V7.25C33.75 6.62773 33.2473 6.125 32.625 6.125ZM29.3027 8.65977L18 17.4453L6.69727 8.65977H29.3027ZM31.2188 10.0203V28.3438H4.78125V10.0203L3.81094 9.26445L4.77773 10.0168L16.7871 19.3543C17.1325 19.6226 17.5574 19.7683 17.9947 19.7683C18.4321 19.7683 18.857 19.6226 19.2023 19.3543L31.2188 10.0203ZM31.2188 10.0203L32.1891 9.26445L30.8074 7.48906H30.8109L32.1926 9.26445L31.2188 10.0203Z" fill="black"/>
</svg>
