<svg width="36" height="37" viewBox="0 0 36 37" fill="none" xmlns="http://www.w3.org/2000/svg">
<mask id="mask0_234_520" style="mask-type:luminance" maskUnits="userSpaceOnUse" x="2" y="5" width="32" height="27">
<path d="M6 30.5H30V18.5H6V30.5Z" fill="#555555"/>
<path d="M30 30.5H6M30 30.5H3H6M30 30.5H33M30 30.5V18.5H6V30.5" stroke="white" stroke-width="2" stroke-linecap="round" stroke-linejoin="round"/>
<path d="M30 26L27 24.5L24 26L21 24.5L18 26L15 24.5L12 26L9 24.5L6 26M24 18.5V11.75M18 18.5V11.75M12 18.5V11.75M24 8V6.5M18 8V6.5M12 8V6.5M6 18.5V30.5M30 18.5V30.5" stroke="white" stroke-width="2" stroke-linecap="round" stroke-linejoin="round"/>
</mask>
<g mask="url(#mask0_234_520)">
<path d="M0 0.5H36V36.5H0V0.5Z" fill="black"/>
</g>
</svg>
