<svg width="36" height="37" viewBox="0 0 36 37" fill="none" xmlns="http://www.w3.org/2000/svg">
<path opacity="0.3" d="M28.4999 26.705C27.1799 26.6 25.8749 26.375 24.5999 26.03L22.8149 27.815C24.6149 28.43 26.5349 28.82 28.5149 28.94V26.705H28.4999ZM7.54492 8C7.67992 9.98 8.06992 11.885 8.66992 13.7L10.4699 11.9C10.1249 10.64 9.89992 9.335 9.80992 8H7.54492Z" fill="black"/>
<path d="M13.605 11.855C13.036 10.1271 12.7473 8.3192 12.75 6.5C12.75 5.675 12.075 5 11.25 5H6C5.175 5 4.5 5.675 4.5 6.5C4.5 20.585 15.915 32 30 32C30.825 32 31.5 31.325 31.5 30.5V25.265C31.5 24.44 30.825 23.765 30 23.765C28.14 23.765 26.325 23.465 24.645 22.91C24.4961 22.856 24.3383 22.8305 24.18 22.835C23.79 22.835 23.415 22.985 23.115 23.27L19.815 26.57C15.5631 24.3956 12.1044 20.9369 9.93 16.685L13.23 13.385C13.65 12.965 13.77 12.38 13.605 11.855ZM24.6 26.03C25.875 26.39 27.18 26.615 28.5 26.705V28.94C26.52 28.805 24.615 28.415 22.8 27.815L24.6 26.03ZM8.685 13.7C8.07 11.885 7.68 9.98 7.545 8H9.795C9.89305 9.315 10.1242 10.6167 10.485 11.885L8.685 13.7Z" fill="black"/>
</svg>
