<svg width="24" height="24" viewBox="0 0 24 24" fill="none" xmlns="http://www.w3.org/2000/svg">
<path fill-rule="evenodd" clip-rule="evenodd" d="M10.5077 2.91077H13.4923L14.0224 6.46573C14.6695 6.70189 15.2625 7.04847 15.7809 7.48279L19.1253 6.16375L20.6176 8.74845L17.8033 10.9851C17.8603 11.3149 17.891 11.6541 17.891 12.0007C17.891 12.3473 17.8611 12.6865 17.8033 13.0163L20.6176 15.253L19.1253 17.8376L15.7809 16.5186C15.2632 16.9522 14.6695 17.2988 14.0224 17.5357L13.4923 21.0906H10.5077L9.97756 17.5357C9.33047 17.2995 8.73749 16.9529 8.21909 16.5186L4.87471 17.8376L3.38239 15.253L6.19667 13.0163C6.13964 12.6865 6.10893 12.3473 6.10893 12.0007C6.10893 11.6541 6.13891 11.3149 6.19667 10.9851L3.38239 8.74845L4.87471 6.16375L8.21909 7.48279C8.73676 7.0492 9.33047 6.70263 9.97756 6.46573L10.5077 2.91077Z" fill="#DDEDFF" stroke="black" stroke-width="1.5" stroke-miterlimit="2.61313" stroke-linecap="round" stroke-linejoin="round"/>
<path fill-rule="evenodd" clip-rule="evenodd" d="M12 8.79602C13.7701 8.79602 15.204 10.2306 15.204 12C15.204 13.7702 13.7694 15.204 12 15.204C10.2298 15.204 8.79596 13.7695 8.79596 12C8.79596 10.2298 10.2305 8.79602 12 8.79602Z" fill="black"/>
</svg>
