<svg width="24" height="24" viewBox="0 0 24 24" fill="none" xmlns="http://www.w3.org/2000/svg">
<g clip-path="url(#clip0_159_250)">
<path fill-rule="evenodd" clip-rule="evenodd" d="M6.90051 2.32349C8.6001 2.32349 9.97698 3.70171 9.97698 5.39996C9.97698 7.09955 8.59876 8.47644 6.90051 8.47644C5.20092 8.47644 3.82404 7.09821 3.82404 5.39996C3.82404 3.70037 5.20226 2.32349 6.90051 2.32349Z" fill="#DDEDFF" stroke="black" stroke-width="1.33412" stroke-miterlimit="2.61313"/>
<path d="M1.80042 11.4749C2.79677 9.68659 4.70747 8.47778 6.90053 8.47778C9.0936 8.47778 11.0029 9.68659 12.0007 11.4749" stroke="black" stroke-width="1.33412" stroke-miterlimit="2.61313" stroke-linecap="round" stroke-linejoin="round"/>
<path fill-rule="evenodd" clip-rule="evenodd" d="M17.0994 2.32349C18.799 2.32349 20.1759 3.70171 20.1759 5.39996C20.1759 7.09955 18.7977 8.47644 17.0994 8.47644C15.3998 8.47644 14.0229 7.09821 14.0229 5.39996C14.0229 3.70037 15.4012 2.32349 17.0994 2.32349Z" fill="#DDEDFF" stroke="black" stroke-width="1.33412" stroke-miterlimit="2.61313"/>
<path d="M12.0007 11.4749C12.997 9.68659 14.9077 8.47778 17.1008 8.47778C19.2939 8.47778 21.2032 9.68659 22.2009 11.4749" stroke="black" stroke-width="1.33412" stroke-miterlimit="2.61313" stroke-linecap="round" stroke-linejoin="round"/>
<path fill-rule="evenodd" clip-rule="evenodd" d="M6.90051 12.525C8.6001 12.525 9.97698 13.9033 9.97698 15.6015C9.97698 17.3011 8.59876 18.678 6.90051 18.678C5.20092 18.678 3.82404 17.2997 3.82404 15.6015C3.82404 13.9019 5.20226 12.525 6.90051 12.525Z" fill="#DDEDFF" stroke="black" stroke-width="1.33412" stroke-miterlimit="2.61313"/>
<path d="M1.80042 21.6765C2.79677 19.8881 4.70747 18.6793 6.90053 18.6793C9.0936 18.6793 11.0029 19.8881 12.0007 21.6765" stroke="black" stroke-width="1.33412" stroke-miterlimit="2.61313" stroke-linecap="round" stroke-linejoin="round"/>
<path fill-rule="evenodd" clip-rule="evenodd" d="M17.0994 12.525C18.799 12.525 20.1759 13.9033 20.1759 15.6015C20.1759 17.3011 18.7977 18.678 17.0994 18.678C15.3998 18.678 14.0229 17.2997 14.0229 15.6015C14.0229 13.9019 15.4012 12.525 17.0994 12.525Z" fill="#DDEDFF" stroke="black" stroke-width="1.33412" stroke-miterlimit="2.61313"/>
<path d="M12.0007 21.6765C12.997 19.8881 14.9077 18.6793 17.1008 18.6793C19.2939 18.6793 21.2032 19.8881 22.2009 21.6765" stroke="black" stroke-width="1.33412" stroke-miterlimit="2.61313" stroke-linecap="round" stroke-linejoin="round"/>
</g>
<defs>
<clipPath id="clip0_159_250">
<rect width="24" height="24" fill="white"/>
</clipPath>
</defs>
</svg>
