<svg width="24" height="24" viewBox="0 0 24 24" fill="none" xmlns="http://www.w3.org/2000/svg">
<mask id="mask0_383_649" style="mask-type:alpha" maskUnits="userSpaceOnUse" x="0" y="0" width="24" height="24">
<rect width="24" height="24" fill="#D9D9D9"/>
</mask>
<g mask="url(#mask0_383_649)">
<path d="M1.79813 19.3077V17.0846C1.79813 16.5693 1.93114 16.1093 2.19718 15.7049C2.46319 15.3004 2.81846 14.9857 3.26298 14.7608C4.21333 14.2959 5.16894 13.9376 6.12983 13.6856C7.09073 13.4337 8.14682 13.3078 9.2981 13.3078C10.4494 13.3078 11.5055 13.4337 12.4664 13.6856C13.4273 13.9376 14.3829 14.2959 15.3332 14.7608C15.7777 14.9857 16.133 15.3004 16.399 15.7049C16.665 16.1093 16.7981 16.5693 16.7981 17.0846V19.3077H1.79813ZM18.7981 19.3077V16.9616C18.7981 16.3052 18.6373 15.6796 18.3159 15.0848C17.9945 14.4901 17.5385 13.9798 16.9481 13.5539C17.6186 13.6539 18.2551 13.8087 18.8577 14.0183C19.4602 14.228 20.0352 14.4757 20.5827 14.7616C21.0993 15.0372 21.4984 15.3621 21.7798 15.7362C22.0612 16.1103 22.2019 16.5188 22.2019 16.9616V19.3077H18.7981ZM9.2981 11.6923C8.33562 11.6923 7.51167 11.3496 6.82625 10.6642C6.14083 9.97879 5.79813 9.15484 5.79813 8.19236C5.79813 7.22986 6.14083 6.40591 6.82625 5.72051C7.51167 5.03509 8.33562 4.69238 9.2981 4.69238C10.2606 4.69238 11.0845 5.03509 11.77 5.72051C12.4554 6.40591 12.7981 7.22986 12.7981 8.19236C12.7981 9.15484 12.4554 9.97879 11.77 10.6642C11.0845 11.3496 10.2606 11.6923 9.2981 11.6923ZM17.9326 8.19236C17.9326 9.15484 17.5899 9.97879 16.9045 10.6642C16.2191 11.3496 15.3951 11.6923 14.4327 11.6923C14.3198 11.6923 14.1763 11.6795 14.0019 11.6539C13.8276 11.6282 13.684 11.6 13.5712 11.5693C13.9655 11.0951 14.2686 10.5692 14.4804 9.99133C14.6922 9.4135 14.7981 8.81344 14.7981 8.19116C14.7981 7.56889 14.69 6.97122 14.474 6.39813C14.258 5.82507 13.9571 5.29751 13.5712 4.81546C13.7147 4.76418 13.8583 4.73084 14.0019 4.71546C14.1455 4.70008 14.2891 4.69238 14.4327 4.69238C15.3951 4.69238 16.2191 5.03509 16.9045 5.72051C17.5899 6.40591 17.9326 7.22986 17.9326 8.19236ZM3.2981 17.8077H15.2981V17.0846C15.2981 16.8757 15.2459 16.6898 15.1414 16.5269C15.0369 16.3641 14.8712 16.2218 14.6443 16.1C13.8212 15.6757 12.9737 15.3542 12.102 15.1356C11.2302 14.917 10.2955 14.8077 9.2981 14.8077C8.30067 14.8077 7.36605 14.917 6.49425 15.1356C5.62247 15.3542 4.77503 15.6757 3.95195 16.1C3.72503 16.2218 3.55933 16.3641 3.45483 16.5269C3.35034 16.6898 3.2981 16.8757 3.2981 17.0846V17.8077ZM9.2981 10.1924C9.8481 10.1924 10.3189 9.99653 10.7106 9.60486C11.1023 9.21319 11.2981 8.74236 11.2981 8.19236C11.2981 7.64236 11.1023 7.17153 10.7106 6.77986C10.3189 6.38819 9.8481 6.19236 9.2981 6.19236C8.7481 6.19236 8.27727 6.38819 7.8856 6.77986C7.49393 7.17153 7.2981 7.64236 7.2981 8.19236C7.2981 8.74236 7.49393 9.21319 7.8856 9.60486C8.27727 9.99653 8.7481 10.1924 9.2981 10.1924Z" fill="#002147"/>
</g>
</svg>
